# xmcd
#
# Track frame offsets:
#	150
#	11714
#	32901
#	45396
#	74773
#	83567
#	97894
#	112304
#	125096
#	152988
#	167420
#	181460
#	193447
#	205754
#	224461
#	245452
#	265949
#	280096
#
# Disc length: 3948 seconds
#
# Revision: 0
# Processed by: cddbd v1.4PL0 Copyright (c) Steve Scherf et al.
# Submitted via: EasyCDDAExtractor 4.6.9.1
#
DISCID=0e0f6a12
DTITLE=Various Artist - Blue Jazz Pub II
DYEAR=2001
DGENRE=blues
TTITLE0=Fly me to the moon
TTITLE1=Black and Blue
TTITLE2=I've got my love to keep me warm
TTITLE3=What'd I say
TTITLE4=Hit the road Jack
TTITLE5=Sunshine of my life
TTITLE6=Mack
TTITLE7=She acts like  a woman should
TTITLE8=Alfie
TTITLE9=Cabaret
TTITLE10=You'd be supried
TTITLE11=Straighten up and fly right
TTITLE12=Dance ballerina dance
TTITLE13=Masgerade
TTITLE14=Little mama
TTITLE15=A foggy day
TTITLE16=You won't be satisfied
TTITLE17=Stormy weather
EXTD=
EXTT0=
EXTT1=
EXTT2=
EXTT3=
EXTT4=
EXTT5=
EXTT6=
EXTT7=
EXTT8=
EXTT9=
EXTT10=
EXTT11=
EXTT12=
EXTT13=
EXTT14=
EXTT15=
EXTT16=
EXTT17=
PLAYORDER=
